<mxfile host="app.diagrams.net" agent="Mozilla/5.0 (Windows NT 10.0; Win64; x64) AppleWebKit/537.36 (KHTML, like Gecko) Chrome/127.0.0.0 Safari/537.36" version="24.7.7">
  <diagram name="Page-1" id="QkkIRuTz51cl59xRLiU2">
    <mxGraphModel>
      <root>
        <mxCell id="0" />
        <mxCell id="1" parent="0" />
        <mxCell id="2" value="Miembro" style="rounded=0;whiteSpace=wrap;html=1;" vertex="1" parent="1">
          <mxGeometry x="120" y="180" width="120" height="60" as="geometry" />
        </mxCell>
        <mxCell id="3" value="Código, Nombre, Dirección, Teléfono, Directores Favoritos, Actores Favoritos, Géneros Preferidos" style="text;strokeColor=none;fillColor=none;spacingLeft=10;whiteSpace=wrap;html=1;" vertex="1" parent="2">
          <mxGeometry x="0" y="30" width="120" height="60" as="geometry" />
        </mxCell>
        <mxCell id="4" value="Pelicula" style="rounded=0;whiteSpace=wrap;html=1;" vertex="1" parent="1">
          <mxGeometry x="360" y="180" width="120" height="60" as="geometry" />
        </mxCell>
        <mxCell id="5" value="Título, Género, Director, Actores" style="text;strokeColor=none;fillColor=none;spacingLeft=10;whiteSpace=wrap;html=1;" vertex="1" parent="4">
          <mxGeometry x="0" y="30" width="120" height="60" as="geometry" />
        </mxCell>
        <mxCell id="6" value="Cinta" style="rounded=0;whiteSpace=wrap;html=1;" vertex="1" parent="1">
          <mxGeometry x="240" y="300" width="120" height="60" as="geometry" />
        </mxCell>
        <mxCell id="7" value="Número de Cinta" style="text;strokeColor=none;fillColor=none;spacingLeft=10;whiteSpace=wrap;html=1;" vertex="1" parent="6">
          <mxGeometry x="0" y="30" width="120" height="60" as="geometry" />
        </mxCell>
        <mxCell id="8" value="Préstamo" style="rounded=0;whiteSpace=wrap;html=1;" vertex="1" parent="1">
          <mxGeometry x="120" y="420" width="120" height="60" as="geometry" />
        </mxCell>
        <mxCell id="9" value="Fecha de Préstamo" style="text;strokeColor=none;fillColor=none;spacingLeft=10;whiteSpace=wrap;html=1;" vertex="1" parent="8">
          <mxGeometry x="0" y="30" width="120" height="60" as="geometry" />
        </mxCell>
        <mxCell id="10" value="Lista de Espera" style="rounded=0;whiteSpace=wrap;html=1;" vertex="1" parent="1">
          <mxGeometry x="360" y="420" width="120" height="60" as="geometry" />
        </mxCell>
        <mxCell id="11" value="Posición en la Lista" style="text;strokeColor=none;fillColor=none;spacingLeft=10;whiteSpace=wrap;html=1;" vertex="1" parent="10">
          <mxGeometry x="0" y="30" width="120" height="60" as="geometry" />
        </mxCell>
        <mxCell id="12" style="edgeStyle=orthogonalEdgeStyle;rounded=0;orthogonalLoop=1;jettySize=auto;html=1;exitX=0.5;exitY=1;exitDx=0;exitDy=0;entryX=0.5;entryY=0;entryDx=0;entryDy=0;" edge="1" parent="1" source="2" target="8">
          <mxGeometry relative="1" as="geometry" />
        </mxCell>
        <mxCell id="13" style="edgeStyle=orthogonalEdgeStyle;rounded=0;orthogonalLoop=1;jettySize=auto;html=1;exitX=0.5;exitY=1;exitDx=0;exitDy=0;entryX=0.5;entryY=0;entryDx=0;entryDy=0;" edge="1" parent="1" source="4" target="10">
          <mxGeometry relative="1" as="geometry" />
        </mxCell>
        <mxCell id="14" style="edgeStyle=orthogonalEdgeStyle;rounded=0;orthogonalLoop=1;jettySize=auto;html=1;exitX=0.5;exitY=1;exitDx=0;exitDy=0;entryX=0.5;entryY=0;entryDx=0;entryDy=0;" edge="1" parent="1" source="6" target="8">
          <mxGeometry relative="1" as="geometry" />
        </mxCell>
      </root>
    </mxGraphModel>
  </diagram>
</mxfile>
